M48
; DRILL file KiCad 10.0.3 date 2026-06-25T17:38:15
; FORMAT={-:-/ absolute / metric / decimal}
; #@! TF.CreationDate,2026-06-25T17:38:15+05:30
; #@! TF.GenerationSoftware,Kicad,Pcbnew,10.0.3
; #@! TF.FileFunction,Plated,1,2,PTH
FMAT,2
METRIC
; #@! TA.AperFunction,Plated,PTH,ComponentDrill
T1C0.990
; #@! TA.AperFunction,Plated,PTH,ComponentDrill
T2C1.000
; #@! TA.AperFunction,Plated,PTH,ComponentDrill
T3C1.300
%
G90
G05
T1
X124.11Y-44.54
X124.11Y-49.04
T2
X125.26Y-57.43
X125.26Y-59.97
X125.26Y-62.51
X125.26Y-65.05
X125.26Y-67.59
X125.26Y-70.13
X125.26Y-72.67
X126.778Y-53.721
X129.318Y-53.721
X131.858Y-53.721
X134.398Y-53.721
X136.938Y-53.721
X137.31Y-64.71
X137.31Y-67.25
X139.478Y-53.721
X140.95Y-57.51
X140.95Y-60.05
X140.95Y-62.59
X140.95Y-65.13
X140.95Y-67.67
X140.95Y-70.21
X140.95Y-72.75
X141.87Y-43.29
X141.87Y-45.83
X141.87Y-48.37
X141.87Y-50.91
T3
X126.6Y-43.28
X126.6Y-50.29
M30
