%TF.GenerationSoftware,KiCad,Pcbnew,10.0.3*%
%TF.CreationDate,2026-06-25T17:38:13+05:30*%
%TF.ProjectId,Motion-datalogger,4d6f7469-6f6e-42d6-9461-74616c6f6767,rev?*%
%TF.SameCoordinates,Original*%
%TF.FileFunction,Copper,L2,Bot*%
%TF.FilePolarity,Positive*%
%FSLAX46Y46*%
G04 Gerber Fmt 4.6, Leading zero omitted, Abs format (unit mm)*
G04 Created by KiCad (PCBNEW 10.0.3) date 2026-06-25 17:38:13*
%MOMM*%
%LPD*%
G01*
G04 APERTURE LIST*
%TA.AperFunction,ComponentPad*%
%ADD10C,1.700000*%
%TD*%
%TA.AperFunction,ComponentPad*%
%ADD11R,1.700000X1.700000*%
%TD*%
%TA.AperFunction,ComponentPad*%
%ADD12C,2.100000*%
%TD*%
%TA.AperFunction,ComponentPad*%
%ADD13C,1.750000*%
%TD*%
%TA.AperFunction,Conductor*%
%ADD14C,0.500000*%
%TD*%
G04 APERTURE END LIST*
D10*
%TO.P,J1,4,Pin_4_4*%
%TO.N,Net-(J1-Pin_4)*%
X141870000Y-43290000D03*
%TO.P,J1,3,Pin_3_3*%
%TO.N,Net-(J1-Pin_3)*%
X141870000Y-45830000D03*
%TO.P,J1,2,Pin_2_2*%
%TO.N,PWR_FLAG*%
X141870000Y-48370000D03*
D11*
%TO.P,J1,1,Pin_1_1*%
%TO.N,GND*%
X141870000Y-50910000D03*
%TD*%
%TO.P,J4,1,Pin_1_1*%
%TO.N,Net-(J3-Pin_1)*%
X137310000Y-64710000D03*
D10*
%TO.P,J4,2,Pin_2_2*%
%TO.N,Net-(J3-Pin_2)*%
X137310000Y-67250000D03*
%TD*%
D11*
%TO.P,J6,1,Pin_1_1*%
%TO.N,Net-(J6-Pin_1)*%
X125260000Y-72670000D03*
D10*
%TO.P,J6,2,Pin_2_2*%
%TO.N,GND*%
X125260000Y-70130000D03*
%TO.P,J6,3,Pin_3_3*%
%TO.N,PWR_FLAG*%
X125260000Y-67590000D03*
%TO.P,J6,4,Pin_4_4*%
%TO.N,Net-(J2-Pin_3)*%
X125260000Y-65050000D03*
%TO.P,J6,5,Pin_5_5*%
%TO.N,Net-(J2-Pin_5)*%
X125260000Y-62510000D03*
%TO.P,J6,6,Pin_6_6*%
%TO.N,Net-(J2-Pin_4)*%
X125260000Y-59970000D03*
%TO.P,J6,7,Pin_7_7*%
%TO.N,Net-(J2-Pin_2)*%
X125260000Y-57430000D03*
%TD*%
D11*
%TO.P,J2,1,Pin_1_1*%
%TO.N,PWR_FLAG*%
X126778379Y-53720996D03*
D10*
%TO.P,J2,2,Pin_2_2*%
%TO.N,Net-(J2-Pin_2)*%
X129318379Y-53720996D03*
%TO.P,J2,3,Pin_3_3*%
%TO.N,Net-(J2-Pin_3)*%
X131858379Y-53720996D03*
%TO.P,J2,4,Pin_4_4*%
%TO.N,Net-(J2-Pin_4)*%
X134398379Y-53720996D03*
%TO.P,J2,5,Pin_5_5*%
%TO.N,Net-(J2-Pin_5)*%
X136938379Y-53720996D03*
%TO.P,J2,6,Pin_6_6*%
%TO.N,GND*%
X139478379Y-53720996D03*
%TD*%
D11*
%TO.P,J7,1,Pin_1_1*%
%TO.N,Net-(J7-Pin_1)*%
X140950000Y-72750000D03*
D10*
%TO.P,J7,2,Pin_2_2*%
%TO.N,Net-(J7-Pin_2)*%
X140950000Y-70210000D03*
%TO.P,J7,3,Pin_3_3*%
%TO.N,Net-(J7-Pin_3)*%
X140950000Y-67670000D03*
%TO.P,J7,4,Pin_4_4*%
%TO.N,Net-(J7-Pin_4)*%
X140950000Y-65130000D03*
%TO.P,J7,5,Pin_5_5*%
%TO.N,Net-(J1-Pin_3)*%
X140950000Y-62590000D03*
%TO.P,J7,6,Pin_6_6*%
%TO.N,Net-(J1-Pin_4)*%
X140950000Y-60050000D03*
%TO.P,J7,7,Pin_7_7*%
%TO.N,Net-(J7-Pin_7)*%
X140950000Y-57510000D03*
%TD*%
D12*
%TO.P,SW1,*%
%TO.N,*%
X126600000Y-50290000D03*
X126600000Y-43280000D03*
D13*
%TO.P,SW1,1,1_1*%
%TO.N,Net-(J7-Pin_4)*%
X124110000Y-49040000D03*
%TO.P,SW1,2,2_2*%
%TO.N,GND*%
X124110000Y-44540000D03*
%TD*%
%TO.N,Net-(J7-Pin_4)*%
D14*
X124984999Y-48165001D02*
X135760862Y-48165001D01*
X135760862Y-48165001D02*
X140778379Y-53182518D01*
X140778379Y-53182518D02*
X140778379Y-54259474D01*
X140778379Y-54259474D02*
X139650000Y-55387853D01*
X124110000Y-49040000D02*
X124984999Y-48165001D01*
X139650000Y-55387853D02*
X139650000Y-63830000D01*
X139650000Y-63830000D02*
X140950000Y-65130000D01*
%TO.N,Net-(J1-Pin_3)*%
X140950000Y-62590000D02*
X143170000Y-60370000D01*
X143170000Y-60370000D02*
X143170000Y-47130000D01*
X143170000Y-47130000D02*
X141870000Y-45830000D01*
%TO.N,Net-(J3-Pin_1)*%
X136960000Y-65060000D02*
X137310000Y-64710000D01*
%TO.N,PWR_FLAG*%
X123040000Y-56020000D02*
X125339004Y-53720996D01*
X125339004Y-53720996D02*
X126778379Y-53720996D01*
X125260000Y-67590000D02*
X124720000Y-67590000D01*
X123040000Y-65910000D02*
X123040000Y-56020000D01*
X124720000Y-67590000D02*
X123040000Y-65910000D01*
%TO.N,Net-(J2-Pin_2)*%
X125609375Y-57430000D02*
X129318379Y-53720996D01*
X125260000Y-57430000D02*
X125609375Y-57430000D01*
%TO.N,Net-(J2-Pin_3)*%
X125260000Y-65050000D02*
X125260000Y-64852617D01*
%TO.N,Net-(J2-Pin_4)*%
X125260000Y-59970000D02*
X128149375Y-59970000D01*
X128149375Y-59970000D02*
X134398379Y-53720996D01*
%TO.N,Net-(J2-Pin_5)*%
X125260000Y-62510000D02*
X128149375Y-62510000D01*
X128149375Y-62510000D02*
X136938379Y-53720996D01*
%TD*%
M02*
