%TF.GenerationSoftware,KiCad,Pcbnew,10.0.3*%
%TF.CreationDate,2026-06-25T17:38:13+05:30*%
%TF.ProjectId,Motion-datalogger,4d6f7469-6f6e-42d6-9461-74616c6f6767,rev?*%
%TF.SameCoordinates,Original*%
%TF.FileFunction,Legend,Top*%
%TF.FilePolarity,Positive*%
%FSLAX46Y46*%
G04 Gerber Fmt 4.6, Leading zero omitted, Abs format (unit mm)*
G04 Created by KiCad (PCBNEW 10.0.3) date 2026-06-25 17:38:13*
%MOMM*%
%LPD*%
G01*
G04 APERTURE LIST*
%ADD10C,0.187500*%
%ADD11C,0.200000*%
%ADD12C,0.300000*%
%ADD13C,0.150000*%
%ADD14C,0.120000*%
G04 APERTURE END LIST*
D10*
X144458549Y-39408741D02*
X144458549Y-38742074D01*
X144458549Y-39313503D02*
X144410930Y-39361122D01*
X144410930Y-39361122D02*
X144315692Y-39408741D01*
X144315692Y-39408741D02*
X144172835Y-39408741D01*
X144172835Y-39408741D02*
X144077597Y-39361122D01*
X144077597Y-39361122D02*
X144029978Y-39265884D01*
X144029978Y-39265884D02*
X144029978Y-38742074D01*
X142982359Y-38742074D02*
X143315692Y-39218265D01*
X143553787Y-38742074D02*
X143553787Y-39742074D01*
X143553787Y-39742074D02*
X143172835Y-39742074D01*
X143172835Y-39742074D02*
X143077597Y-39694455D01*
X143077597Y-39694455D02*
X143029978Y-39646836D01*
X143029978Y-39646836D02*
X142982359Y-39551598D01*
X142982359Y-39551598D02*
X142982359Y-39408741D01*
X142982359Y-39408741D02*
X143029978Y-39313503D01*
X143029978Y-39313503D02*
X143077597Y-39265884D01*
X143077597Y-39265884D02*
X143172835Y-39218265D01*
X143172835Y-39218265D02*
X143553787Y-39218265D01*
X142220454Y-39265884D02*
X142553787Y-39265884D01*
X142553787Y-38742074D02*
X142553787Y-39742074D01*
X142553787Y-39742074D02*
X142077597Y-39742074D01*
X140934739Y-38742074D02*
X140934739Y-39742074D01*
X140934739Y-39742074D02*
X140696644Y-39742074D01*
X140696644Y-39742074D02*
X140553787Y-39694455D01*
X140553787Y-39694455D02*
X140458549Y-39599217D01*
X140458549Y-39599217D02*
X140410930Y-39503979D01*
X140410930Y-39503979D02*
X140363311Y-39313503D01*
X140363311Y-39313503D02*
X140363311Y-39170646D01*
X140363311Y-39170646D02*
X140410930Y-38980170D01*
X140410930Y-38980170D02*
X140458549Y-38884932D01*
X140458549Y-38884932D02*
X140553787Y-38789694D01*
X140553787Y-38789694D02*
X140696644Y-38742074D01*
X140696644Y-38742074D02*
X140934739Y-38742074D01*
X139506168Y-38742074D02*
X139506168Y-39265884D01*
X139506168Y-39265884D02*
X139553787Y-39361122D01*
X139553787Y-39361122D02*
X139649025Y-39408741D01*
X139649025Y-39408741D02*
X139839501Y-39408741D01*
X139839501Y-39408741D02*
X139934739Y-39361122D01*
X139506168Y-38789694D02*
X139601406Y-38742074D01*
X139601406Y-38742074D02*
X139839501Y-38742074D01*
X139839501Y-38742074D02*
X139934739Y-38789694D01*
X139934739Y-38789694D02*
X139982358Y-38884932D01*
X139982358Y-38884932D02*
X139982358Y-38980170D01*
X139982358Y-38980170D02*
X139934739Y-39075408D01*
X139934739Y-39075408D02*
X139839501Y-39123027D01*
X139839501Y-39123027D02*
X139601406Y-39123027D01*
X139601406Y-39123027D02*
X139506168Y-39170646D01*
X139172834Y-39408741D02*
X138791882Y-39408741D01*
X139029977Y-39742074D02*
X139029977Y-38884932D01*
X139029977Y-38884932D02*
X138982358Y-38789694D01*
X138982358Y-38789694D02*
X138887120Y-38742074D01*
X138887120Y-38742074D02*
X138791882Y-38742074D01*
X138029977Y-38742074D02*
X138029977Y-39265884D01*
X138029977Y-39265884D02*
X138077596Y-39361122D01*
X138077596Y-39361122D02*
X138172834Y-39408741D01*
X138172834Y-39408741D02*
X138363310Y-39408741D01*
X138363310Y-39408741D02*
X138458548Y-39361122D01*
X138029977Y-38789694D02*
X138125215Y-38742074D01*
X138125215Y-38742074D02*
X138363310Y-38742074D01*
X138363310Y-38742074D02*
X138458548Y-38789694D01*
X138458548Y-38789694D02*
X138506167Y-38884932D01*
X138506167Y-38884932D02*
X138506167Y-38980170D01*
X138506167Y-38980170D02*
X138458548Y-39075408D01*
X138458548Y-39075408D02*
X138363310Y-39123027D01*
X138363310Y-39123027D02*
X138125215Y-39123027D01*
X138125215Y-39123027D02*
X138029977Y-39170646D01*
X136315691Y-38742074D02*
X136791881Y-38742074D01*
X136791881Y-38742074D02*
X136791881Y-39742074D01*
X135839500Y-38742074D02*
X135934738Y-38789694D01*
X135934738Y-38789694D02*
X135982357Y-38837313D01*
X135982357Y-38837313D02*
X136029976Y-38932551D01*
X136029976Y-38932551D02*
X136029976Y-39218265D01*
X136029976Y-39218265D02*
X135982357Y-39313503D01*
X135982357Y-39313503D02*
X135934738Y-39361122D01*
X135934738Y-39361122D02*
X135839500Y-39408741D01*
X135839500Y-39408741D02*
X135696643Y-39408741D01*
X135696643Y-39408741D02*
X135601405Y-39361122D01*
X135601405Y-39361122D02*
X135553786Y-39313503D01*
X135553786Y-39313503D02*
X135506167Y-39218265D01*
X135506167Y-39218265D02*
X135506167Y-38932551D01*
X135506167Y-38932551D02*
X135553786Y-38837313D01*
X135553786Y-38837313D02*
X135601405Y-38789694D01*
X135601405Y-38789694D02*
X135696643Y-38742074D01*
X135696643Y-38742074D02*
X135839500Y-38742074D01*
X134649024Y-39408741D02*
X134649024Y-38599217D01*
X134649024Y-38599217D02*
X134696643Y-38503979D01*
X134696643Y-38503979D02*
X134744262Y-38456360D01*
X134744262Y-38456360D02*
X134839500Y-38408741D01*
X134839500Y-38408741D02*
X134982357Y-38408741D01*
X134982357Y-38408741D02*
X135077595Y-38456360D01*
X134649024Y-38789694D02*
X134744262Y-38742074D01*
X134744262Y-38742074D02*
X134934738Y-38742074D01*
X134934738Y-38742074D02*
X135029976Y-38789694D01*
X135029976Y-38789694D02*
X135077595Y-38837313D01*
X135077595Y-38837313D02*
X135125214Y-38932551D01*
X135125214Y-38932551D02*
X135125214Y-39218265D01*
X135125214Y-39218265D02*
X135077595Y-39313503D01*
X135077595Y-39313503D02*
X135029976Y-39361122D01*
X135029976Y-39361122D02*
X134934738Y-39408741D01*
X134934738Y-39408741D02*
X134744262Y-39408741D01*
X134744262Y-39408741D02*
X134649024Y-39361122D01*
X133744262Y-39408741D02*
X133744262Y-38599217D01*
X133744262Y-38599217D02*
X133791881Y-38503979D01*
X133791881Y-38503979D02*
X133839500Y-38456360D01*
X133839500Y-38456360D02*
X133934738Y-38408741D01*
X133934738Y-38408741D02*
X134077595Y-38408741D01*
X134077595Y-38408741D02*
X134172833Y-38456360D01*
X133744262Y-38789694D02*
X133839500Y-38742074D01*
X133839500Y-38742074D02*
X134029976Y-38742074D01*
X134029976Y-38742074D02*
X134125214Y-38789694D01*
X134125214Y-38789694D02*
X134172833Y-38837313D01*
X134172833Y-38837313D02*
X134220452Y-38932551D01*
X134220452Y-38932551D02*
X134220452Y-39218265D01*
X134220452Y-39218265D02*
X134172833Y-39313503D01*
X134172833Y-39313503D02*
X134125214Y-39361122D01*
X134125214Y-39361122D02*
X134029976Y-39408741D01*
X134029976Y-39408741D02*
X133839500Y-39408741D01*
X133839500Y-39408741D02*
X133744262Y-39361122D01*
X132887119Y-38789694D02*
X132982357Y-38742074D01*
X132982357Y-38742074D02*
X133172833Y-38742074D01*
X133172833Y-38742074D02*
X133268071Y-38789694D01*
X133268071Y-38789694D02*
X133315690Y-38884932D01*
X133315690Y-38884932D02*
X133315690Y-39265884D01*
X133315690Y-39265884D02*
X133268071Y-39361122D01*
X133268071Y-39361122D02*
X133172833Y-39408741D01*
X133172833Y-39408741D02*
X132982357Y-39408741D01*
X132982357Y-39408741D02*
X132887119Y-39361122D01*
X132887119Y-39361122D02*
X132839500Y-39265884D01*
X132839500Y-39265884D02*
X132839500Y-39170646D01*
X132839500Y-39170646D02*
X133315690Y-39075408D01*
X132410928Y-38742074D02*
X132410928Y-39408741D01*
X132410928Y-39218265D02*
X132363309Y-39313503D01*
X132363309Y-39313503D02*
X132315690Y-39361122D01*
X132315690Y-39361122D02*
X132220452Y-39408741D01*
X132220452Y-39408741D02*
X132125214Y-39408741D01*
X131029975Y-38742074D02*
X131029975Y-39742074D01*
X131029975Y-39742074D02*
X130696642Y-39027789D01*
X130696642Y-39027789D02*
X130363309Y-39742074D01*
X130363309Y-39742074D02*
X130363309Y-38742074D01*
X129744261Y-38742074D02*
X129839499Y-38789694D01*
X129839499Y-38789694D02*
X129887118Y-38837313D01*
X129887118Y-38837313D02*
X129934737Y-38932551D01*
X129934737Y-38932551D02*
X129934737Y-39218265D01*
X129934737Y-39218265D02*
X129887118Y-39313503D01*
X129887118Y-39313503D02*
X129839499Y-39361122D01*
X129839499Y-39361122D02*
X129744261Y-39408741D01*
X129744261Y-39408741D02*
X129601404Y-39408741D01*
X129601404Y-39408741D02*
X129506166Y-39361122D01*
X129506166Y-39361122D02*
X129458547Y-39313503D01*
X129458547Y-39313503D02*
X129410928Y-39218265D01*
X129410928Y-39218265D02*
X129410928Y-38932551D01*
X129410928Y-38932551D02*
X129458547Y-38837313D01*
X129458547Y-38837313D02*
X129506166Y-38789694D01*
X129506166Y-38789694D02*
X129601404Y-38742074D01*
X129601404Y-38742074D02*
X129744261Y-38742074D01*
X128553785Y-38742074D02*
X128553785Y-39742074D01*
X128553785Y-38789694D02*
X128649023Y-38742074D01*
X128649023Y-38742074D02*
X128839499Y-38742074D01*
X128839499Y-38742074D02*
X128934737Y-38789694D01*
X128934737Y-38789694D02*
X128982356Y-38837313D01*
X128982356Y-38837313D02*
X129029975Y-38932551D01*
X129029975Y-38932551D02*
X129029975Y-39218265D01*
X129029975Y-39218265D02*
X128982356Y-39313503D01*
X128982356Y-39313503D02*
X128934737Y-39361122D01*
X128934737Y-39361122D02*
X128839499Y-39408741D01*
X128839499Y-39408741D02*
X128649023Y-39408741D01*
X128649023Y-39408741D02*
X128553785Y-39361122D01*
X127649023Y-39408741D02*
X127649023Y-38742074D01*
X128077594Y-39408741D02*
X128077594Y-38884932D01*
X128077594Y-38884932D02*
X128029975Y-38789694D01*
X128029975Y-38789694D02*
X127934737Y-38742074D01*
X127934737Y-38742074D02*
X127791880Y-38742074D01*
X127791880Y-38742074D02*
X127696642Y-38789694D01*
X127696642Y-38789694D02*
X127649023Y-38837313D01*
X127029975Y-38742074D02*
X127125213Y-38789694D01*
X127125213Y-38789694D02*
X127172832Y-38884932D01*
X127172832Y-38884932D02*
X127172832Y-39742074D01*
X126268070Y-38789694D02*
X126363308Y-38742074D01*
X126363308Y-38742074D02*
X126553784Y-38742074D01*
X126553784Y-38742074D02*
X126649022Y-38789694D01*
X126649022Y-38789694D02*
X126696641Y-38884932D01*
X126696641Y-38884932D02*
X126696641Y-39265884D01*
X126696641Y-39265884D02*
X126649022Y-39361122D01*
X126649022Y-39361122D02*
X126553784Y-39408741D01*
X126553784Y-39408741D02*
X126363308Y-39408741D01*
X126363308Y-39408741D02*
X126268070Y-39361122D01*
X126268070Y-39361122D02*
X126220451Y-39265884D01*
X126220451Y-39265884D02*
X126220451Y-39170646D01*
X126220451Y-39170646D02*
X126696641Y-39075408D01*
X144601406Y-38132130D02*
X144268073Y-37132130D01*
X144268073Y-37132130D02*
X143934740Y-38132130D01*
X142315692Y-37132130D02*
X142887120Y-37132130D01*
X142601406Y-37132130D02*
X142601406Y-38132130D01*
X142601406Y-38132130D02*
X142696644Y-37989273D01*
X142696644Y-37989273D02*
X142791882Y-37894035D01*
X142791882Y-37894035D02*
X142887120Y-37846416D01*
X141887120Y-37227369D02*
X141839501Y-37179750D01*
X141839501Y-37179750D02*
X141887120Y-37132130D01*
X141887120Y-37132130D02*
X141934739Y-37179750D01*
X141934739Y-37179750D02*
X141887120Y-37227369D01*
X141887120Y-37227369D02*
X141887120Y-37132130D01*
X141220454Y-38132130D02*
X141125216Y-38132130D01*
X141125216Y-38132130D02*
X141029978Y-38084511D01*
X141029978Y-38084511D02*
X140982359Y-38036892D01*
X140982359Y-38036892D02*
X140934740Y-37941654D01*
X140934740Y-37941654D02*
X140887121Y-37751178D01*
X140887121Y-37751178D02*
X140887121Y-37513083D01*
X140887121Y-37513083D02*
X140934740Y-37322607D01*
X140934740Y-37322607D02*
X140982359Y-37227369D01*
X140982359Y-37227369D02*
X141029978Y-37179750D01*
X141029978Y-37179750D02*
X141125216Y-37132130D01*
X141125216Y-37132130D02*
X141220454Y-37132130D01*
X141220454Y-37132130D02*
X141315692Y-37179750D01*
X141315692Y-37179750D02*
X141363311Y-37227369D01*
X141363311Y-37227369D02*
X141410930Y-37322607D01*
X141410930Y-37322607D02*
X141458549Y-37513083D01*
X141458549Y-37513083D02*
X141458549Y-37751178D01*
X141458549Y-37751178D02*
X141410930Y-37941654D01*
X141410930Y-37941654D02*
X141363311Y-38036892D01*
X141363311Y-38036892D02*
X141315692Y-38084511D01*
X141315692Y-38084511D02*
X141220454Y-38132130D01*
D11*
X137656517Y-51537290D02*
X137751755Y-51608719D01*
X137751755Y-51608719D02*
X137894612Y-51608719D01*
X137894612Y-51608719D02*
X138037469Y-51537290D01*
X138037469Y-51537290D02*
X138132707Y-51394433D01*
X138132707Y-51394433D02*
X138180326Y-51251576D01*
X138180326Y-51251576D02*
X138227945Y-50965862D01*
X138227945Y-50965862D02*
X138227945Y-50751576D01*
X138227945Y-50751576D02*
X138180326Y-50465862D01*
X138180326Y-50465862D02*
X138132707Y-50323005D01*
X138132707Y-50323005D02*
X138037469Y-50180148D01*
X138037469Y-50180148D02*
X137894612Y-50108719D01*
X137894612Y-50108719D02*
X137799374Y-50108719D01*
X137799374Y-50108719D02*
X137656517Y-50180148D01*
X137656517Y-50180148D02*
X137608898Y-50251576D01*
X137608898Y-50251576D02*
X137608898Y-50751576D01*
X137608898Y-50751576D02*
X137799374Y-50751576D01*
X137180326Y-50108719D02*
X137180326Y-51608719D01*
X137180326Y-51608719D02*
X136608898Y-50108719D01*
X136608898Y-50108719D02*
X136608898Y-51608719D01*
X136132707Y-50108719D02*
X136132707Y-51608719D01*
X136132707Y-51608719D02*
X135894612Y-51608719D01*
X135894612Y-51608719D02*
X135751755Y-51537290D01*
X135751755Y-51537290D02*
X135656517Y-51394433D01*
X135656517Y-51394433D02*
X135608898Y-51251576D01*
X135608898Y-51251576D02*
X135561279Y-50965862D01*
X135561279Y-50965862D02*
X135561279Y-50751576D01*
X135561279Y-50751576D02*
X135608898Y-50465862D01*
X135608898Y-50465862D02*
X135656517Y-50323005D01*
X135656517Y-50323005D02*
X135751755Y-50180148D01*
X135751755Y-50180148D02*
X135894612Y-50108719D01*
X135894612Y-50108719D02*
X136132707Y-50108719D01*
X138323183Y-49193803D02*
X137989850Y-47693803D01*
X137989850Y-47693803D02*
X137656517Y-49193803D01*
X136751755Y-47836660D02*
X136799374Y-47765232D01*
X136799374Y-47765232D02*
X136942231Y-47693803D01*
X136942231Y-47693803D02*
X137037469Y-47693803D01*
X137037469Y-47693803D02*
X137180326Y-47765232D01*
X137180326Y-47765232D02*
X137275564Y-47908089D01*
X137275564Y-47908089D02*
X137323183Y-48050946D01*
X137323183Y-48050946D02*
X137370802Y-48336660D01*
X137370802Y-48336660D02*
X137370802Y-48550946D01*
X137370802Y-48550946D02*
X137323183Y-48836660D01*
X137323183Y-48836660D02*
X137275564Y-48979517D01*
X137275564Y-48979517D02*
X137180326Y-49122374D01*
X137180326Y-49122374D02*
X137037469Y-49193803D01*
X137037469Y-49193803D02*
X136942231Y-49193803D01*
X136942231Y-49193803D02*
X136799374Y-49122374D01*
X136799374Y-49122374D02*
X136751755Y-49050946D01*
X135751755Y-47836660D02*
X135799374Y-47765232D01*
X135799374Y-47765232D02*
X135942231Y-47693803D01*
X135942231Y-47693803D02*
X136037469Y-47693803D01*
X136037469Y-47693803D02*
X136180326Y-47765232D01*
X136180326Y-47765232D02*
X136275564Y-47908089D01*
X136275564Y-47908089D02*
X136323183Y-48050946D01*
X136323183Y-48050946D02*
X136370802Y-48336660D01*
X136370802Y-48336660D02*
X136370802Y-48550946D01*
X136370802Y-48550946D02*
X136323183Y-48836660D01*
X136323183Y-48836660D02*
X136275564Y-48979517D01*
X136275564Y-48979517D02*
X136180326Y-49122374D01*
X136180326Y-49122374D02*
X136037469Y-49193803D01*
X136037469Y-49193803D02*
X135942231Y-49193803D01*
X135942231Y-49193803D02*
X135799374Y-49122374D01*
X135799374Y-49122374D02*
X135751755Y-49050946D01*
X138227945Y-45350316D02*
X138085088Y-45278887D01*
X138085088Y-45278887D02*
X137846993Y-45278887D01*
X137846993Y-45278887D02*
X137751755Y-45350316D01*
X137751755Y-45350316D02*
X137704136Y-45421744D01*
X137704136Y-45421744D02*
X137656517Y-45564601D01*
X137656517Y-45564601D02*
X137656517Y-45707458D01*
X137656517Y-45707458D02*
X137704136Y-45850316D01*
X137704136Y-45850316D02*
X137751755Y-45921744D01*
X137751755Y-45921744D02*
X137846993Y-45993173D01*
X137846993Y-45993173D02*
X138037469Y-46064601D01*
X138037469Y-46064601D02*
X138132707Y-46136030D01*
X138132707Y-46136030D02*
X138180326Y-46207458D01*
X138180326Y-46207458D02*
X138227945Y-46350316D01*
X138227945Y-46350316D02*
X138227945Y-46493173D01*
X138227945Y-46493173D02*
X138180326Y-46636030D01*
X138180326Y-46636030D02*
X138132707Y-46707458D01*
X138132707Y-46707458D02*
X138037469Y-46778887D01*
X138037469Y-46778887D02*
X137799374Y-46778887D01*
X137799374Y-46778887D02*
X137656517Y-46707458D01*
X137227945Y-45278887D02*
X137227945Y-46778887D01*
X137227945Y-46778887D02*
X136989850Y-46778887D01*
X136989850Y-46778887D02*
X136846993Y-46707458D01*
X136846993Y-46707458D02*
X136751755Y-46564601D01*
X136751755Y-46564601D02*
X136704136Y-46421744D01*
X136704136Y-46421744D02*
X136656517Y-46136030D01*
X136656517Y-46136030D02*
X136656517Y-45921744D01*
X136656517Y-45921744D02*
X136704136Y-45636030D01*
X136704136Y-45636030D02*
X136751755Y-45493173D01*
X136751755Y-45493173D02*
X136846993Y-45350316D01*
X136846993Y-45350316D02*
X136989850Y-45278887D01*
X136989850Y-45278887D02*
X137227945Y-45278887D01*
X136275564Y-45707458D02*
X135799374Y-45707458D01*
X136370802Y-45278887D02*
X136037469Y-46778887D01*
X136037469Y-46778887D02*
X135704136Y-45278887D01*
X138227945Y-42935400D02*
X138085088Y-42863971D01*
X138085088Y-42863971D02*
X137846993Y-42863971D01*
X137846993Y-42863971D02*
X137751755Y-42935400D01*
X137751755Y-42935400D02*
X137704136Y-43006828D01*
X137704136Y-43006828D02*
X137656517Y-43149685D01*
X137656517Y-43149685D02*
X137656517Y-43292542D01*
X137656517Y-43292542D02*
X137704136Y-43435400D01*
X137704136Y-43435400D02*
X137751755Y-43506828D01*
X137751755Y-43506828D02*
X137846993Y-43578257D01*
X137846993Y-43578257D02*
X138037469Y-43649685D01*
X138037469Y-43649685D02*
X138132707Y-43721114D01*
X138132707Y-43721114D02*
X138180326Y-43792542D01*
X138180326Y-43792542D02*
X138227945Y-43935400D01*
X138227945Y-43935400D02*
X138227945Y-44078257D01*
X138227945Y-44078257D02*
X138180326Y-44221114D01*
X138180326Y-44221114D02*
X138132707Y-44292542D01*
X138132707Y-44292542D02*
X138037469Y-44363971D01*
X138037469Y-44363971D02*
X137799374Y-44363971D01*
X137799374Y-44363971D02*
X137656517Y-44292542D01*
X136656517Y-43006828D02*
X136704136Y-42935400D01*
X136704136Y-42935400D02*
X136846993Y-42863971D01*
X136846993Y-42863971D02*
X136942231Y-42863971D01*
X136942231Y-42863971D02*
X137085088Y-42935400D01*
X137085088Y-42935400D02*
X137180326Y-43078257D01*
X137180326Y-43078257D02*
X137227945Y-43221114D01*
X137227945Y-43221114D02*
X137275564Y-43506828D01*
X137275564Y-43506828D02*
X137275564Y-43721114D01*
X137275564Y-43721114D02*
X137227945Y-44006828D01*
X137227945Y-44006828D02*
X137180326Y-44149685D01*
X137180326Y-44149685D02*
X137085088Y-44292542D01*
X137085088Y-44292542D02*
X136942231Y-44363971D01*
X136942231Y-44363971D02*
X136846993Y-44363971D01*
X136846993Y-44363971D02*
X136704136Y-44292542D01*
X136704136Y-44292542D02*
X136656517Y-44221114D01*
X135751755Y-42863971D02*
X136227945Y-42863971D01*
X136227945Y-42863971D02*
X136227945Y-44363971D01*
D12*
X133544510Y-64859400D02*
X134687368Y-64859400D01*
X134115939Y-65430828D02*
X134115939Y-64287971D01*
X133734510Y-67529400D02*
X134877368Y-67529400D01*
D13*
X141536666Y-52744819D02*
X141536666Y-53459104D01*
X141536666Y-53459104D02*
X141489047Y-53601961D01*
X141489047Y-53601961D02*
X141393809Y-53697200D01*
X141393809Y-53697200D02*
X141250952Y-53744819D01*
X141250952Y-53744819D02*
X141155714Y-53744819D01*
X142536666Y-53744819D02*
X141965238Y-53744819D01*
X142250952Y-53744819D02*
X142250952Y-52744819D01*
X142250952Y-52744819D02*
X142155714Y-52887676D01*
X142155714Y-52887676D02*
X142060476Y-52982914D01*
X142060476Y-52982914D02*
X141965238Y-53030533D01*
X136976666Y-61784819D02*
X136976666Y-62499104D01*
X136976666Y-62499104D02*
X136929047Y-62641961D01*
X136929047Y-62641961D02*
X136833809Y-62737200D01*
X136833809Y-62737200D02*
X136690952Y-62784819D01*
X136690952Y-62784819D02*
X136595714Y-62784819D01*
X137881428Y-62118152D02*
X137881428Y-62784819D01*
X137643333Y-61737200D02*
X137405238Y-62451485D01*
X137405238Y-62451485D02*
X138024285Y-62451485D01*
X124926666Y-74894819D02*
X124926666Y-75609104D01*
X124926666Y-75609104D02*
X124879047Y-75751961D01*
X124879047Y-75751961D02*
X124783809Y-75847200D01*
X124783809Y-75847200D02*
X124640952Y-75894819D01*
X124640952Y-75894819D02*
X124545714Y-75894819D01*
X125831428Y-74894819D02*
X125640952Y-74894819D01*
X125640952Y-74894819D02*
X125545714Y-74942438D01*
X125545714Y-74942438D02*
X125498095Y-74990057D01*
X125498095Y-74990057D02*
X125402857Y-75132914D01*
X125402857Y-75132914D02*
X125355238Y-75323390D01*
X125355238Y-75323390D02*
X125355238Y-75704342D01*
X125355238Y-75704342D02*
X125402857Y-75799580D01*
X125402857Y-75799580D02*
X125450476Y-75847200D01*
X125450476Y-75847200D02*
X125545714Y-75894819D01*
X125545714Y-75894819D02*
X125736190Y-75894819D01*
X125736190Y-75894819D02*
X125831428Y-75847200D01*
X125831428Y-75847200D02*
X125879047Y-75799580D01*
X125879047Y-75799580D02*
X125926666Y-75704342D01*
X125926666Y-75704342D02*
X125926666Y-75466247D01*
X125926666Y-75466247D02*
X125879047Y-75371009D01*
X125879047Y-75371009D02*
X125831428Y-75323390D01*
X125831428Y-75323390D02*
X125736190Y-75275771D01*
X125736190Y-75275771D02*
X125545714Y-75275771D01*
X125545714Y-75275771D02*
X125450476Y-75323390D01*
X125450476Y-75323390D02*
X125402857Y-75371009D01*
X125402857Y-75371009D02*
X125355238Y-75466247D01*
X140616666Y-74974819D02*
X140616666Y-75689104D01*
X140616666Y-75689104D02*
X140569047Y-75831961D01*
X140569047Y-75831961D02*
X140473809Y-75927200D01*
X140473809Y-75927200D02*
X140330952Y-75974819D01*
X140330952Y-75974819D02*
X140235714Y-75974819D01*
X140997619Y-74974819D02*
X141664285Y-74974819D01*
X141664285Y-74974819D02*
X141235714Y-75974819D01*
X126197200Y-48123332D02*
X126244819Y-47980475D01*
X126244819Y-47980475D02*
X126244819Y-47742380D01*
X126244819Y-47742380D02*
X126197200Y-47647142D01*
X126197200Y-47647142D02*
X126149580Y-47599523D01*
X126149580Y-47599523D02*
X126054342Y-47551904D01*
X126054342Y-47551904D02*
X125959104Y-47551904D01*
X125959104Y-47551904D02*
X125863866Y-47599523D01*
X125863866Y-47599523D02*
X125816247Y-47647142D01*
X125816247Y-47647142D02*
X125768628Y-47742380D01*
X125768628Y-47742380D02*
X125721009Y-47932856D01*
X125721009Y-47932856D02*
X125673390Y-48028094D01*
X125673390Y-48028094D02*
X125625771Y-48075713D01*
X125625771Y-48075713D02*
X125530533Y-48123332D01*
X125530533Y-48123332D02*
X125435295Y-48123332D01*
X125435295Y-48123332D02*
X125340057Y-48075713D01*
X125340057Y-48075713D02*
X125292438Y-48028094D01*
X125292438Y-48028094D02*
X125244819Y-47932856D01*
X125244819Y-47932856D02*
X125244819Y-47694761D01*
X125244819Y-47694761D02*
X125292438Y-47551904D01*
X125244819Y-47218570D02*
X126244819Y-46980475D01*
X126244819Y-46980475D02*
X125530533Y-46789999D01*
X125530533Y-46789999D02*
X126244819Y-46599523D01*
X126244819Y-46599523D02*
X125244819Y-46361428D01*
X126244819Y-45456666D02*
X126244819Y-46028094D01*
X126244819Y-45742380D02*
X125244819Y-45742380D01*
X125244819Y-45742380D02*
X125387676Y-45837618D01*
X125387676Y-45837618D02*
X125482914Y-45932856D01*
X125482914Y-45932856D02*
X125530533Y-46028094D01*
%TO.C,J1*%
D14*
X143250000Y-52290000D02*
X141870000Y-52290000D01*
X143250000Y-50910000D02*
X143250000Y-52290000D01*
X143250000Y-49640000D02*
X143250000Y-41910000D01*
X143250000Y-49640000D02*
X140490000Y-49640000D01*
X143250000Y-41910000D02*
X140490000Y-41910000D01*
X140490000Y-49640000D02*
X140490000Y-41910000D01*
%TO.C,J4*%
X135930000Y-63330000D02*
X137310000Y-63330000D01*
X135930000Y-64710000D02*
X135930000Y-63330000D01*
X135930000Y-65980000D02*
X135930000Y-68630000D01*
X135930000Y-65980000D02*
X138690000Y-65980000D01*
X135930000Y-68630000D02*
X138690000Y-68630000D01*
X138690000Y-65980000D02*
X138690000Y-68630000D01*
%TO.C,J6*%
X123930000Y-71400000D02*
X123930000Y-56100000D01*
X123930000Y-74000000D02*
X123930000Y-72670000D01*
X125260000Y-74000000D02*
X123930000Y-74000000D01*
X126590000Y-56100000D02*
X123930000Y-56100000D01*
X126590000Y-71400000D02*
X123930000Y-71400000D01*
X126590000Y-71400000D02*
X126590000Y-56100000D01*
%TO.C,J7*%
X139620000Y-71480000D02*
X139620000Y-56180000D01*
X139620000Y-74080000D02*
X139620000Y-72750000D01*
X140950000Y-74080000D02*
X139620000Y-74080000D01*
X142280000Y-56180000D02*
X139620000Y-56180000D01*
X142280000Y-71480000D02*
X139620000Y-71480000D01*
X142280000Y-71480000D02*
X142280000Y-56180000D01*
%TO.C,SW1*%
X128420000Y-50650000D02*
X128420000Y-50130000D01*
X128420000Y-43450000D02*
X128420000Y-42930000D01*
X127910000Y-50650000D02*
X128420000Y-50650000D01*
X127910000Y-50130000D02*
X128420000Y-50130000D01*
X127910000Y-43450000D02*
X128420000Y-43450000D01*
X127910000Y-42930000D02*
X128420000Y-42930000D01*
X125080000Y-50130000D02*
X125310000Y-50130000D01*
X125080000Y-50130000D02*
X125080000Y-49590000D01*
X125080000Y-48490000D02*
X125080000Y-45090000D01*
X125080000Y-43990000D02*
X125080000Y-43450000D01*
X125080000Y-43450000D02*
X125310000Y-43450000D01*
X123210000Y-50650000D02*
X125310000Y-50650000D01*
X123210000Y-42930000D02*
X125310000Y-42930000D01*
%TD*%
M02*
